<svg width="275" height="354" viewBox="0 0 275 354" fill="none" xmlns="http://www.w3.org/2000/svg">
<path d="M137.5 353.996C132.161 354.074 126.894 352.846 122.222 350.434L117.639 348.011C81.9394 329.171 52.2395 301.831 31.5721 268.782C10.9047 235.734 0.0102368 198.161 0.00122453 159.901V157.906C-0.0472046 152.859 1.34166 147.891 4.02587 143.51C6.71008 139.128 10.5934 135.49 15.2789 132.967L122.222 76.8185C126.867 74.317 132.136 73 137.5 73C142.864 73 148.133 74.317 152.778 76.8185L259.721 132.967C264.407 135.49 268.29 139.128 270.974 143.51C273.658 147.891 275.047 152.859 274.999 157.906V159.901C274.959 198.189 264.019 235.781 243.296 268.832C222.573 301.883 192.812 329.208 157.055 348.011L152.472 350.434C147.891 352.798 142.736 354.025 137.5 353.996Z" fill="url(#paint0_linear_305_20)"/>
<path d="M186.526 189.758H147.619L160.291 140.746C160.537 139.791 160.549 138.797 160.326 137.837C160.103 136.877 159.65 135.978 159.002 135.206C158.354 134.434 157.527 133.81 156.584 133.381C155.641 132.952 154.607 132.729 153.559 132.729H110.497C108.943 132.727 107.433 133.216 106.211 134.115C104.988 135.015 104.125 136.274 103.758 137.689L82.9951 218.02C82.7481 218.976 82.7358 219.971 82.9593 220.932C83.1828 221.892 83.6362 222.792 84.2852 223.564C84.9342 224.337 85.7619 224.96 86.7058 225.389C87.6498 225.817 88.6852 226.039 89.7341 226.038H127.152L111.801 285.405C111.519 286.476 111.501 287.593 111.749 288.672C111.996 289.751 112.503 290.763 113.23 291.63C113.957 292.498 114.886 293.199 115.946 293.681C117.005 294.162 118.168 294.41 119.345 294.407H124.224C125.52 294.407 126.795 294.104 127.934 293.524C129.073 292.944 130.039 292.107 130.744 291.089L193.043 200.994C193.808 199.896 194.242 198.625 194.298 197.315C194.355 196.005 194.032 194.705 193.364 193.553C192.696 192.401 191.707 191.44 190.503 190.772C189.3 190.104 187.925 189.753 186.526 189.758Z" fill="url(#paint1_linear_305_20)"/>
<g filter="url(#filter0_d_305_20)">
<path d="M208.405 155.826C208.405 155.826 195.268 154.073 192.157 169.43L196.959 167.638C196.959 167.638 192.44 180.946 199.299 184.795L199.7 180.926C199.7 180.926 201.649 188.281 215.683 183.784C215.683 183.784 220.619 180.703 222.151 177.832L217.721 178.746C217.721 178.746 224.958 174.86 224.623 169.445C224.291 164.029 217.112 153.932 208.405 155.826Z" fill="white"/>
<path opacity="0.3" d="M218.215 174.562L222.2 173.74C220.822 176.323 216.382 179.095 216.382 179.095C203.759 183.139 202.004 176.524 202.004 176.524L201.642 180.005C195.472 176.542 199.537 164.57 199.537 164.57L195.217 166.182C195.94 162.608 197.27 160.071 198.841 158.262C196.011 160.185 193.35 163.551 192.159 169.43L196.961 167.638C196.961 167.638 192.441 180.946 199.3 184.795L199.702 180.926C199.702 180.926 201.65 188.281 215.685 183.784C215.685 183.784 220.621 180.703 222.152 177.832L217.723 178.746C217.723 178.746 224.96 174.859 224.625 169.445C224.591 168.894 224.468 168.288 224.298 167.657C223.432 171.747 218.215 174.562 218.215 174.562Z" fill="#DBDBD5"/>
</g>
<g filter="url(#filter1_d_305_20)">
<path d="M76.4306 81.4912C75.6258 81.0267 76.2519 75.0338 76.2877 74.28C76.5667 68.231 77.7918 62.233 79.6584 56.4732C96.4937 4.50747 142.897 -8.8651 182.13 5.27658C230.693 22.7823 236.027 80.6575 229.837 107.459C224.882 128.909 218.894 154.609 216.701 164.015C215.673 168.424 210.912 170.886 206.757 169.088C206.685 169.057 206.615 169.026 206.544 168.994C199.384 165.785 194.043 90.0875 194.043 90.0875C194.043 90.0875 85.7109 86.8307 76.4306 81.4912Z" fill="#D11919"/>
<path opacity="0.5" d="M225.755 125.089C217.594 111.929 216.568 108.168 218.644 97.908C219.178 95.2706 219.568 93.7017 219.568 93.7017L219.178 95.2706C219.178 95.2706 209.512 62.3045 207.206 74.925C204.902 87.5455 196.939 95.6823 196.939 95.6823L195.596 108.813C197.684 131.453 201.696 166.821 206.542 168.992C206.614 169.025 206.685 169.055 206.755 169.086C210.909 170.885 215.669 168.422 216.699 164.014C217.517 160.507 218.862 154.733 220.485 147.762L225.755 125.089Z" fill="#AB0024"/>
</g>
<path opacity="0.5" d="M185.482 29.7993C219.432 77.7119 196.018 119.948 196.018 119.948C196.018 119.948 227.184 111.694 219.432 77.7119C211.679 43.73 185.482 29.7993 185.482 29.7993Z" fill="#AB0024"/>
<path d="M154.197 10.1038C154.197 10.1038 195.768 51.9418 207.206 74.9248C218.644 97.9078 153.916 100.447 153.916 100.447L89.3997 93.2983L69.4778 78.9915L92.4778 40.5277L154.197 10.1038Z" fill="#D11919"/>
<path opacity="0.5" d="M203.273 58.6818C200.447 58.6086 180.302 64.6152 174.313 66.4222C173.401 66.6979 173.088 67.8226 173.726 68.5305C174.851 69.7794 176.967 71.3193 180.605 71.4112C186.782 71.5695 161.08 72.8133 152.967 74.0316C146.538 74.9964 127.894 75.0526 119.213 76.4223C118.005 76.6129 117.242 75.1768 118.066 74.2732C118.913 73.3459 118.08 71.8689 116.851 72.1361C112.863 73.0022 106.031 73.8512 95.9456 73.0464C88.2393 72.4321 81.5913 70.1027 76.5512 67.6831C76.0697 70.8157 75.8042 73.9823 75.7889 77.1472C75.7855 77.901 75.4061 83.916 76.2296 84.3465C85.7226 89.2997 194.095 88.095 194.095 88.095C194.095 88.095 195.327 99.0854 197.255 112.836C203.377 110.464 208.756 106.697 210.755 100.707C213.469 92.5736 214.592 86.9124 215.024 83.2201C215.399 80.0279 214.854 76.8154 213.44 73.9295C210.769 68.4777 205.668 58.7431 203.273 58.6818Z" fill="#AB0024"/>
<path d="M72.0149 64.7205C71.2594 67.7901 69.8641 73.9515 69.4796 78.9932C69.4251 79.696 68.8432 80.2336 68.1388 80.2047L65.7327 80.1043C64.722 80.0618 64.1281 80.6063 64.0873 81.3124C63.8049 86.2504 63.5649 104.125 74.3716 109.477C86.9546 115.708 116.254 120.256 125.83 118.752C129.698 118.144 130.021 118.786 129.186 119.866C127.608 121.908 129.044 124.862 131.622 124.794C139.65 124.581 153.351 124.064 157.998 122.943C163.064 121.721 171.818 116.069 175.834 113.349C176.714 112.754 177.895 113.412 177.85 114.474L177.677 118.631C177.646 119.361 178.22 119.974 178.951 119.979C185.147 120.016 211.101 119.278 216.318 104.44C219.163 96.3509 220.374 90.7085 220.866 87.0246C221.291 83.8393 220.798 80.6182 219.43 77.7102C216.847 72.2159 211.902 62.4013 209.51 62.3009C206.685 62.1835 186.447 67.8667 180.43 69.5767C179.514 69.8371 179.183 70.9584 179.809 71.6765C180.913 72.9425 183.004 74.5164 186.641 74.6678C192.814 74.9248 167.095 75.7568 158.963 76.8458C152.519 77.7085 133.877 77.4669 125.175 78.6971C123.965 78.8673 123.223 77.4193 124.062 76.531C124.923 75.6173 124.113 74.1267 122.881 74.3735C118.879 75.1766 112.036 75.9151 101.964 74.9503C88.1355 73.6248 77.7917 66.8202 74.0415 64.0059C73.3013 63.4494 72.2361 63.817 72.0149 64.7205Z" fill="white"/>
<g opacity="0.3" filter="url(#filter2_d_305_20)">
<path d="M219.431 77.7138C216.848 72.2195 211.904 62.4049 209.511 62.3045C209.139 62.2892 208.456 62.3759 207.551 62.541C208.924 65.0763 210.226 67.7444 211.194 69.8033C212.562 72.7112 213.056 75.9323 212.63 79.1176C212.139 82.8015 210.925 88.4456 208.082 96.5331C202.865 111.371 176.911 112.109 170.716 112.072C169.984 112.067 169.411 111.454 169.441 110.724L169.615 106.567C169.659 105.505 168.478 104.847 167.598 105.442C163.583 108.16 154.826 113.814 149.763 115.036C145.116 116.157 131.415 116.674 123.387 116.887C120.809 116.955 119.373 114 120.95 111.959C121.786 110.879 121.461 110.237 117.595 110.845C108.343 112.298 80.6809 108.1 67.4717 102.194C69.0184 105.264 71.2134 107.913 74.3732 109.479C86.9563 115.71 116.255 120.258 125.832 118.754C129.7 118.146 130.023 118.788 129.187 119.868C127.61 121.91 129.046 124.864 131.624 124.796C139.652 124.583 153.353 124.066 158 122.945C163.065 121.723 171.82 116.069 175.837 113.351C176.717 112.756 177.898 113.414 177.854 114.476L177.68 118.633C177.65 119.363 178.223 119.976 178.955 119.981C185.15 120.018 211.104 119.28 216.321 104.442C219.166 96.3527 220.378 90.7103 220.869 87.0265C221.293 83.8428 220.799 80.6201 219.431 77.7138Z" fill="#DBDBD5"/>
</g>
<defs>
<filter id="filter0_d_305_20" x="188.157" y="155.593" width="40.4788" height="37.6477" filterUnits="userSpaceOnUse" color-interpolation-filters="sRGB">
<feFlood flood-opacity="0" result="BackgroundImageFix"/>
<feColorMatrix in="SourceAlpha" type="matrix" values="0 0 0 0 0 0 0 0 0 0 0 0 0 0 0 0 0 0 127 0" result="hardAlpha"/>
<feOffset dy="4"/>
<feGaussianBlur stdDeviation="2"/>
<feComposite in2="hardAlpha" operator="out"/>
<feColorMatrix type="matrix" values="0 0 0 0 0 0 0 0 0 0 0 0 0 0 0 0 0 0 0.25 0"/>
<feBlend mode="normal" in2="BackgroundImageFix" result="effect1_dropShadow_305_20"/>
<feBlend mode="normal" in="SourceGraphic" in2="effect1_dropShadow_305_20" result="shape"/>
</filter>
<filter id="filter1_d_305_20" x="72.022" y="0" width="163.896" height="177.681" filterUnits="userSpaceOnUse" color-interpolation-filters="sRGB">
<feFlood flood-opacity="0" result="BackgroundImageFix"/>
<feColorMatrix in="SourceAlpha" type="matrix" values="0 0 0 0 0 0 0 0 0 0 0 0 0 0 0 0 0 0 127 0" result="hardAlpha"/>
<feOffset dy="4"/>
<feGaussianBlur stdDeviation="2"/>
<feComposite in2="hardAlpha" operator="out"/>
<feColorMatrix type="matrix" values="0 0 0 0 0 0 0 0 0 0 0 0 0 0 0 0 0 0 0.25 0"/>
<feBlend mode="normal" in2="BackgroundImageFix" result="effect1_dropShadow_305_20"/>
<feBlend mode="normal" in="SourceGraphic" in2="effect1_dropShadow_305_20" result="shape"/>
</filter>
<filter id="filter2_d_305_20" x="63.4717" y="62.3027" width="161.545" height="70.4944" filterUnits="userSpaceOnUse" color-interpolation-filters="sRGB">
<feFlood flood-opacity="0" result="BackgroundImageFix"/>
<feColorMatrix in="SourceAlpha" type="matrix" values="0 0 0 0 0 0 0 0 0 0 0 0 0 0 0 0 0 0 127 0" result="hardAlpha"/>
<feOffset dy="4"/>
<feGaussianBlur stdDeviation="2"/>
<feComposite in2="hardAlpha" operator="out"/>
<feColorMatrix type="matrix" values="0 0 0 0 0 0 0 0 0 0 0 0 0 0 0 0 0 0 0.25 0"/>
<feBlend mode="normal" in2="BackgroundImageFix" result="effect1_dropShadow_305_20"/>
<feBlend mode="normal" in="SourceGraphic" in2="effect1_dropShadow_305_20" result="shape"/>
</filter>
<linearGradient id="paint0_linear_305_20" x1="137.5" y1="73" x2="216.731" y2="333.701" gradientUnits="userSpaceOnUse">
<stop stop-color="#DD2832"/>
<stop offset="1" stop-color="#FF30A0"/>
</linearGradient>
<linearGradient id="paint1_linear_305_20" x1="138.553" y1="132.729" x2="138.553" y2="294.407" gradientUnits="userSpaceOnUse">
<stop stop-color="white"/>
<stop offset="1" stop-color="#B3B3B3"/>
</linearGradient>
</defs>
</svg>
